{"title":"Bagaimana ffmpeg menentukan bitrate streaming individu?","draft":false,"url":"/bagaimana-ffmpeg-menentukan-bitrate-streaming-individu-t9bgxblb","votes":"4","answers_count":"2","categories":["Komputer"],"tags":["video","ffmpeg","bitrate"],"snippet":"Misalnya, saya memiliki video yang menampilkan ffmpeg    Duration: 00:46:43.72, start: 0.540000, bitrate: 2593 kb/s    Stream #0.0[0x1e0]: Video: mpeg2video (Main), yuv420p, 720x576 [PAR 16:15 DAR 4:3], 9000 kb/s, 25 fps, 25 tbr, 90k...","body":"<p> Misalnya, saya memiliki video yang menampilkan ffmpeg </p> <pre>\n  Duration: 00:46:43.72, start: 0.540000, bitrate: 2593 kb/s\n    Stream #0.0[0x1e0]: Video: mpeg2video (Main), yuv420p, 720x576 [PAR 16:15 DAR 4:3], 9000 kb/s, 25 fps, 25 tbr, 90k tbn, 50 tbc\n    Stream #0.1[0x80]: Audio: ac3, 48000 Hz, stereo, s16, 448 kb/s\n</pre> <p> Ukuran file adalah 908843008 byte, jadi 2593 kb / s sudah benar. Tetapi mengapa dikatakan bahwa bitrate streaming video adalah 9000 kb / s? </p>","source":"https://superuser.com/questions/694062/how-does-ffmpeg-determine-individual-stream-bitrates","author":"<a href=\"https://superuser.com/users/285097/prateek\" target=\"_blank\" rel=\"nofollow noopener\"><span itemprop=\"name\">Prateek</span></a>","replies":[],"answers":[{"answer":"<p> Aliran MPEG biasanya menggunakan pengkodean bitrate variabel untuk menghemat ruang di bagian video yang mudah dienkode, sehingga memungkinkan peningkatan kualitas. FFMpeg melaporkan bitrate yang disimpan di header urutan aliran video, yang merupakan bitrate maksimum di seluruh file (atau, dalam banyak kasus, bitrate maksimum yang dikonfigurasikan encoder - file sebenarnya mungkin tidak memiliki bagian yang menggunakan bitrate setinggi ini). Nilai 9000kbps adalah tipikal streaming MPEG2 dari (atau ditujukan untuk) DVD: DVD memiliki bitrate gabungan video &amp; audio maksimum 9800kbps, jadi ini memungkinkan ~ 500kbps untuk audio dan beberapa cadangan untuk paket navigasi &amp; overhead lainnya. </p>","votes":"4","source":"https://superuser.com/a/694085","author":"<a href=\"https://superuser.com/users/168170/jules\" target=\"_blank\" rel=\"nofollow noopener\"><span itemprop=\"name\">Jules</span></a>","replies":[{"reply":"Terima kasih! Ini memang dikodekan oleh <code>ffmpeg</code> dengan <code>-target pal-dvd</code>.","author":"<a href=\"https://superuser.com/users/285097/prateek\" target=\"_blank\" rel=\"nofollow noopener\">Prateek</a>"}]},{"answer":"<p> Secara umum, <code>ffmpeg</code> menggunakan file header untuk informasi di tempat yang bisa (saat mengenali format header), dan sebaliknya kembali ke penghitungan dari durasi dan ukuran file. </p>\n\n<p> Format pembungkus (mis. Mov, mp4) tidak memiliki bitrate-nya sendiri - bitrate adalah karakteristik streaming individual - tetapi memiliki durasi. <code>ffmpeg</code> kemudian dapat menghitung bitrate dari ukuran file dan durasi. </p>\n\n<p> Namun, streaming itu sendiri akan memiliki bitrate yang ditentukan di header streaming, sehingga dapat dibaca langsung dari metadata. Ini berarti bitrate mungkin salah ditentukan di header, atau mungkin 9000kb / s di awal, dan menurun ke bitrate yang lebih rendah, atau aliran mungkin terpotong sehingga file tidak lengkap, oleh karena itu matematika tidak berfungsi seperti diharapkan. </p>\n\n<p> Jika Anda mengekstrak komponen video (misalnya: <code>ffmpeg -i myfile.mov -vcodec copy -an testfile.m2v</code>, penggunaan berbeda-beda tergantung versi perangkat lunak), Anda mungkin dapat menyelidiki lebih lanjut dan mencari tahu dari mana kecepatan bit yang ditampilkan berasal. </p>","votes":"2","source":"https://superuser.com/a/694068","author":"<a href=\"https://superuser.com/users/283097/tenorkev\" target=\"_blank\" rel=\"nofollow noopener\"><span itemprop=\"name\">tenorkev</span></a>","replies":[{"reply":"Angka 9000 diproduksi di awal, mungkin oleh encoder streaming yang tidak pernah mundur dan memperbaikinya. Ini adalah teori maksimum, untuk memberi tahu penerima &quot;jika Anda mengalokasikan cukup memori untuk ini, Anda akan dapat memutar seluruh file&quot;.","author":"<a href=\"https://superuser.com/users/168170/jules\" target=\"_blank\" rel=\"nofollow noopener\">Jules</a>"}]}]}
